<svg width="17" height="22" viewBox="0 0 17 22" fill="none" xmlns="http://www.w3.org/2000/svg">
<g id="Group">
<path id="Vector" d="M7.4375 4.78125H6.375V5.84375H7.4375V4.78125ZM8.5 4.78125H9.5625V5.84375H8.5V4.78125ZM11.6875 4.78125H10.625V5.84375H11.6875V4.78125ZM6.375 6.90625H7.4375V7.96875H6.375V6.90625ZM9.5625 6.90625H8.5V7.96875H9.5625V6.90625ZM10.625 6.90625H11.6875V7.96875H10.625V6.90625ZM7.4375 9.03125H6.375V10.0938H7.4375V9.03125ZM8.5 9.03125H9.5625V10.0938H8.5V9.03125ZM11.6875 9.03125H10.625V10.0938H11.6875V9.03125ZM6.375 11.1562H7.4375V12.2188H6.375V11.1562ZM9.5625 11.1562H8.5V12.2188H9.5625V11.1562ZM6.375 13.2812H7.4375V14.3438H6.375V13.2812ZM9.5625 13.2812H8.5V14.3438H9.5625V13.2812ZM6.375 15.4062H7.4375V16.4688H6.375V15.4062ZM9.5625 15.4062H8.5V16.4688H9.5625V15.4062ZM6.375 17.5312H7.4375V18.5938H6.375V17.5312ZM9.5625 17.5312H8.5V18.5938H9.5625V17.5312ZM12.2188 13.8125H13.8125V12.75H12.2188V13.8125ZM13.8125 15.9375H12.2188V14.875H13.8125V15.9375ZM12.2188 18.0625H13.8125V17H12.2188V18.0625Z" fill="white"/>
<path id="Vector_2" fill-rule="evenodd" clip-rule="evenodd" d="M4.78125 0L13.2812 3.1875V10.625H15.4062C15.5471 10.625 15.6823 10.681 15.7819 10.7806C15.8815 10.8802 15.9375 11.0154 15.9375 11.1562V20.1875H16.4688C16.6096 20.1875 16.7448 20.2435 16.8444 20.3431C16.944 20.4427 17 20.5779 17 20.7188C17 20.8596 16.944 20.9948 16.8444 21.0944C16.7448 21.194 16.6096 21.25 16.4688 21.25H0.53125C0.390354 21.25 0.255228 21.194 0.1556 21.0944C0.0559709 20.9948 0 20.8596 0 20.7188C0 20.5779 0.0559709 20.4427 0.1556 20.3431C0.255228 20.2435 0.390354 20.1875 0.53125 20.1875H1.0625V9.03125C1.0625 8.89035 1.11847 8.75523 1.2181 8.6556C1.31773 8.55597 1.45285 8.5 1.59375 8.5H2.65625V4.78125H3.71875V8.5H4.78125V0ZM5.84375 1.53319L12.2188 3.92381V10.625H10.625C10.4841 10.625 10.349 10.681 10.2493 10.7806C10.1497 10.8802 10.0938 11.0154 10.0938 11.1562V20.1875H5.84375V1.53319ZM2.125 9.5625V20.1875H4.78125V9.5625H2.125ZM14.875 20.1875H13.8125V19.125H12.2188V20.1875H11.1562V11.6875H14.875V20.1875Z" fill="white"/>
</g>
</svg>
