<svg width="24" height="16" viewBox="0 0 24 16" fill="none" xmlns="http://www.w3.org/2000/svg">
<path fill-rule="evenodd" clip-rule="evenodd" d="M15.835 5.97069C17.1844 5.97069 18.2783 4.87677 18.2783 3.52734C18.2783 2.17791 17.1844 1.08398 15.835 1.08398C14.4855 1.08398 13.3916 2.17791 13.3916 3.52734C13.3916 4.87677 14.4855 5.97069 15.835 5.97069ZM15.835 6.97069C17.4824 6.97069 18.8597 5.81368 19.1985 4.26788C19.2566 4.28436 19.318 4.29318 19.3814 4.29318H23.2074C23.5772 4.29318 23.8769 3.99342 23.8769 3.62364C23.8769 3.25387 23.5772 2.9541 23.2074 2.9541H19.3814C19.3306 2.9541 19.2811 2.95977 19.2335 2.9705C18.9674 1.33358 17.5471 0.0839844 15.835 0.0839844C14.1285 0.0839844 12.712 1.32524 12.4391 2.9541H1.58457C1.2148 2.9541 0.915033 3.25387 0.915033 3.62364C0.915033 3.99342 1.2148 4.29318 1.58457 4.29318H12.4771C12.8253 5.82629 14.1965 6.97069 15.835 6.97069ZM23.2064 12.5176C23.5762 12.5176 23.876 12.2178 23.876 11.848C23.876 11.4783 23.5762 11.1785 23.2064 11.1785L12.3061 11.1785C11.9579 9.64539 10.5867 8.50099 8.94824 8.50099C7.30148 8.50099 5.92471 9.65699 5.58516 11.2018C5.5292 11.1866 5.47032 11.1785 5.40956 11.1785L1.5836 11.1785C1.21383 11.1785 0.914062 11.4783 0.914062 11.848C0.914062 12.2178 1.21383 12.5176 1.5836 12.5176H5.40955C5.45771 12.5176 5.50468 12.5125 5.54995 12.5028C5.81679 14.1389 7.23669 15.3877 8.94824 15.3877C10.6546 15.3877 12.0711 14.1464 12.3441 12.5176L23.2064 12.5176ZM6.50489 11.9443C6.50489 10.5949 7.59881 9.50099 8.94824 9.50099C10.2977 9.50099 11.3916 10.5949 11.3916 11.9443C11.3916 13.2938 10.2977 14.3877 8.94824 14.3877C7.59881 14.3877 6.50489 13.2938 6.50489 11.9443Z" fill="#AAAAAA"/>
</svg>
