<svg width="17" height="20" viewBox="0 0 17 20" fill="none" xmlns="http://www.w3.org/2000/svg">
<path id="Vector" d="M8.60818 0C3.82423 0 0 3.79769 0 8.38769C0 10.9208 1.63123 13.68 3.43091 15.9208C4.33036 17.0415 5.28236 18.02 6.15091 18.7392C6.58595 19.0992 6.99782 19.3962 7.39191 19.6154C7.786 19.8346 8.14995 20 8.60895 20C9.07414 20 9.40177 19.8231 9.77191 19.6031C10.1428 19.3831 10.5354 19.0892 10.9526 18.7308C11.7872 18.0123 12.7168 17.0354 13.6015 15.9162C15.3695 13.6785 17 10.9208 17 8.38769C17 3.79769 13.1974 0 8.60818 0ZM8.60818 1.53846C12.3389 1.53846 15.4545 4.64615 15.4545 8.38769C15.4545 10.2069 14.0428 12.87 12.3868 14.9654C11.5577 16.0131 10.6791 16.9308 9.94114 17.5654C9.64194 17.8309 9.3209 18.071 8.98141 18.2831C8.72564 18.4346 8.52705 18.4615 8.60895 18.4615C8.62905 18.4615 8.42118 18.4246 8.14686 18.2723C7.79038 18.0636 7.45295 17.8243 7.13845 17.5569C6.37345 16.9238 5.47864 16.0077 4.63791 14.9608C2.95723 12.8692 1.54545 10.2077 1.54545 8.38769C1.54545 4.64615 4.64023 1.53846 8.60818 1.53846ZM8.5 5.38462C8.45286 5.38462 8.40882 5.39615 8.36245 5.39846C8.44591 5.63615 8.5 5.88769 8.5 6.15385C8.5 6.76588 8.25576 7.35286 7.82102 7.78563C7.38628 8.21841 6.79664 8.46154 6.18182 8.46154C5.91445 8.46154 5.66177 8.40769 5.423 8.32462C5.42068 8.37077 5.40909 8.41462 5.40909 8.46154C5.40909 9.0701 5.59037 9.66499 5.93 10.171C6.26964 10.677 6.75237 11.0714 7.31716 11.3042C7.88195 11.5371 8.50343 11.5981 9.10301 11.4793C9.70258 11.3606 10.2533 11.0676 10.6856 10.6373C11.1179 10.2069 11.4123 9.65868 11.5315 9.06182C11.6508 8.46495 11.5896 7.84628 11.3556 7.28405C11.1217 6.72182 10.7255 6.24127 10.2172 5.90317C9.70892 5.56507 9.11132 5.38462 8.5 5.38462Z" fill="white"/>
</svg>
