<svg width="22" height="20" viewBox="0 0 22 20" fill="none" xmlns="http://www.w3.org/2000/svg">
<path id="Vector" d="M10.0748 17.8188L10.0733 17.8175C7.22104 15.2547 4.93459 13.1952 3.34952 11.2737C1.77516 9.36525 1 7.71727 1 5.99455C1 3.18883 3.20439 1 6.05 1C6.72676 1 7.46665 1.29293 8.22788 1.81453C8.98104 2.3306 9.67693 3.01728 10.2441 3.67209L11 4.5447L11.7559 3.67209C12.3231 3.01728 13.019 2.3306 13.7721 1.81453C14.5333 1.29293 15.2732 1 15.95 1C18.7956 1 21 3.18883 21 5.99455C21 7.71727 20.2248 9.36525 18.6505 11.2737C17.0654 13.1952 14.779 15.2547 11.9267 17.8175L11.9252 17.8188L11 18.6533L10.0748 17.8188Z" stroke="white" stroke-width="2"/>
</svg>
