<svg width="26" height="26" viewBox="0 0 26 26" fill="none" xmlns="http://www.w3.org/2000/svg">
<path fill-rule="evenodd" clip-rule="evenodd" d="M24.449 24.5432C25.2508 23.7413 25.2508 22.4413 24.449 21.6394L15.813 13.0034L24.4524 4.36401C25.2543 3.56215 25.2543 2.26207 24.4524 1.46021C23.6505 0.658354 22.3505 0.658352 21.5486 1.46021L12.9092 10.0996L4.27124 1.46166C3.46937 0.659801 2.1693 0.659802 1.36744 1.46166C0.56558 2.26352 0.56558 3.5636 1.36744 4.36546L10.0054 13.0034L1.37086 21.638C0.568996 22.4398 0.568996 23.7399 1.37086 24.5418C2.17272 25.3436 3.47279 25.3436 4.27465 24.5418L12.9092 15.9072L21.5452 24.5432C22.347 25.3451 23.6471 25.3451 24.449 24.5432Z" fill="white"/>
</svg>
