<svg width="28" height="30" viewBox="0 0 28 30" fill="none" xmlns="http://www.w3.org/2000/svg">
<path fill-rule="evenodd" clip-rule="evenodd" d="M13.9894 1.96356C13.2271 2.07069 12.8667 2.96288 13.3406 3.56949L18.3444 9.974C18.8183 10.5806 19.7712 10.4467 20.0596 9.73294L20.7968 7.90818C21.408 8.45792 21.953 9.0822 22.4177 9.76911C23.4369 11.2755 24.0332 13.0278 24.1442 14.8433C24.2552 16.6587 23.8769 18.4706 23.0488 20.0899C22.2207 21.7093 20.9731 23.0767 19.4363 24.0494C17.8995 25.0222 16.1298 25.5646 14.3118 25.6201C12.4939 25.6757 10.6944 25.2422 9.10105 24.3651C7.50774 23.4879 6.17906 22.1992 5.25368 20.6334C4.65538 19.6211 4.23985 18.5169 4.02085 17.3713C3.82183 16.3302 2.98085 15.4634 1.92088 15.4634C0.860899 15.4634 -0.0118956 16.3266 0.132966 17.3767C0.385927 19.2103 1.00094 20.982 1.94913 22.5864C3.22408 24.7437 5.05466 26.5192 7.24985 27.7277C9.44503 28.9362 11.9243 29.5334 14.429 29.4569C16.9337 29.3804 19.3719 28.633 21.4893 27.2928C23.6066 25.9526 25.3254 24.0687 26.4663 21.8376C27.6073 19.6066 28.1284 17.1102 27.9755 14.609C27.8226 12.1078 27.0012 9.69353 25.5969 7.61809C24.698 6.28947 23.5813 5.1309 22.2999 4.18783L23.1041 2.19731C23.3925 1.48357 22.8001 0.725304 22.0378 0.83244L13.9894 1.96356Z" fill="white"/>
</svg>
