<svg width="149" height="112" viewBox="0 0 149 112" fill="none" xmlns="http://www.w3.org/2000/svg">
<path d="M85.834 106.497C79.6068 112.724 69.5105 112.724 63.2834 106.497L44.7731 87.9866C38.5459 81.7594 38.5459 71.6632 44.7731 65.436L99.4113 10.7977C110.75 -0.540917 129.134 -0.540927 140.472 10.7977C151.811 22.1364 151.811 40.52 140.472 51.8586L85.834 106.497Z" fill="url(#paint0_linear_1212_40)"/>
<path d="M9.61172 9.61075C21.5471 -2.32467 40.8983 -2.32468 52.8337 9.61075L66.9279 23.7049C69.8858 26.6628 69.8858 31.4585 66.9279 34.4164L34.4174 66.9269C31.4595 69.8848 26.6638 69.8848 23.7059 66.9269L9.61173 52.8328C-2.3237 40.8973 -2.32371 21.5462 9.61172 9.61075Z" fill="url(#paint1_linear_1212_40)"/>
<defs>
<linearGradient id="paint0_linear_1212_40" x1="74.8182" y1="0.65918" x2="45.5753" y2="104.114" gradientUnits="userSpaceOnUse">
<stop stop-color="#FF51EE"/>
<stop offset="1" stop-color="#811FFF"/>
</linearGradient>
<linearGradient id="paint1_linear_1212_40" x1="-7.5" y1="26.5" x2="72" y2="30" gradientUnits="userSpaceOnUse">
<stop stop-color="#FF4646"/>
<stop offset="1" stop-color="#D63180"/>
</linearGradient>
</defs>
</svg>
