<svg width="22" height="20" viewBox="0 0 22 20" fill="none" xmlns="http://www.w3.org/2000/svg">
<path d="M19 12C18.4477 12 18 11.5523 18 11L18 1C18 0.447715 18.4477 -3.10551e-07 19 -2.62268e-07L21 -8.74228e-08C21.5523 -3.91405e-08 22 0.447716 22 1L22 11C22 11.5523 21.5523 12 21 12L19 12ZM14 -6.99382e-07C14.5304 -6.5301e-07 15.0391 0.210714 15.4142 0.585786C15.7893 0.960859 16 1.46957 16 2L16 12C16 12.55 15.78 13.05 15.41 13.41L9.53711 19.2918C9.14667 19.6828 8.51309 19.6831 8.12236 19.2924L7.77 18.94C7.5 18.67 7.33 18.3 7.33 17.89L7.36 17.57L8.05981 14.2035C8.18888 13.5827 7.71488 13 7.08075 13L2 13C1.46957 13 0.96086 12.7893 0.585787 12.4142C0.210715 12.0391 7.40433e-07 11.5304 7.86805e-07 11L9.61651e-07 9C9.8438e-07 8.74 0.0500002 8.5 0.14 8.27L3.16 1.22C3.46 0.499998 4.17 -1.55875e-06 5 -1.48619e-06L14 -6.99382e-07ZM14 3C14 2.44772 13.5523 2 13 2L5.632 2C5.23066 2 4.86819 2.23995 4.71143 2.60942L2.07943 8.81278C2.02701 8.93633 2 9.06916 2 9.20337L2 10C2 10.5523 2.44772 11 3 11L9.55529 11C10.1912 11 10.6656 11.5857 10.5335 12.2078L10.3627 13.0116C10.1557 13.986 11.3452 14.6309 12.0488 13.9257L13.7079 12.2628C13.895 12.0753 14 11.8213 14 11.5565L14 3Z" fill="white"/>
</svg>
