<svg width="16" height="18" viewBox="0 0 16 18" fill="none" xmlns="http://www.w3.org/2000/svg">
<path d="M8.09625 0.0625C3.83994 0.0625 0.4375 3.45669 0.4375 7.559C0.4375 9.82294 1.88881 12.289 3.49 14.2917C4.29025 15.2934 5.13725 16.1679 5.91 16.8107C6.29706 17.1324 6.6635 17.3978 7.01412 17.5938C7.36475 17.7897 7.68856 17.9375 8.09694 17.9375C8.51081 17.9375 8.80231 17.7794 9.13163 17.5828C9.46163 17.3861 9.81087 17.1235 10.1821 16.8031C10.9246 16.161 11.7517 15.2879 12.5389 14.2876C14.1119 12.2876 15.5625 9.82294 15.5625 7.559C15.5625 3.45669 12.1793 0.0625 8.09625 0.0625ZM8.09625 1.4375C11.4155 1.4375 14.1875 4.215 14.1875 7.559C14.1875 9.18494 12.9314 11.5651 11.4581 13.4378C10.7204 14.3742 9.93875 15.1944 9.28219 15.7616C9.01599 15.9989 8.73036 16.2134 8.42831 16.403C8.20075 16.5384 8.02406 16.5625 8.09694 16.5625C8.11481 16.5625 7.92988 16.5295 7.68581 16.3934C7.36865 16.2069 7.06844 15.9929 6.78862 15.754C6.108 15.1882 5.31187 14.3694 4.56387 13.4337C3.06856 11.5644 1.8125 9.18563 1.8125 7.559C1.8125 4.215 4.56594 1.4375 8.09625 1.4375ZM8 4.875C7.95806 4.875 7.91887 4.88531 7.87762 4.88737C7.95187 5.09981 8 5.32463 8 5.5625C8 6.10951 7.7827 6.63411 7.39591 7.02091C7.00911 7.4077 6.48451 7.625 5.9375 7.625C5.69963 7.625 5.47481 7.57687 5.26237 7.50262C5.26031 7.54387 5.25 7.58306 5.25 7.625C5.25 8.1689 5.41128 8.70058 5.71346 9.15282C6.01563 9.60505 6.44512 9.95753 6.94762 10.1657C7.45012 10.3738 8.00305 10.4283 8.5365 10.3222C9.06995 10.2161 9.55995 9.95414 9.94454 9.56954C10.3291 9.18495 10.5911 8.69495 10.6972 8.1615C10.8033 7.62805 10.7488 7.07512 10.5407 6.57262C10.3325 6.07012 9.98005 5.64063 9.52782 5.33846C9.07558 5.03628 8.5439 4.875 8 4.875Z" fill="#E0E0E0"/>
</svg>
