<svg width="36" height="27" viewBox="0 0 36 27" fill="none" xmlns="http://www.w3.org/2000/svg">
<path d="M20.3541 24.6586C19.0583 25.9544 16.9573 25.9544 15.6615 24.6586L11.8097 20.8067C10.5138 19.5109 10.5138 17.4099 11.8097 16.1141L23.1795 4.74431C25.5389 2.38483 29.3644 2.38482 31.7239 4.74431C34.0834 7.1038 34.0834 10.9293 31.7239 13.2888L20.3541 24.6586Z" fill="#AAAAAA"/>
<path d="M4.4951 4.49709C6.97877 2.01341 11.0056 2.01341 13.4893 4.49708L16.4222 7.42997C17.0377 8.04548 17.0377 9.04344 16.4222 9.65896L9.65698 16.4241C9.04146 17.0397 8.0435 17.0397 7.42798 16.4241L4.4951 13.4913C2.01143 11.0076 2.01143 6.98076 4.4951 4.49709Z" fill="#AAAAAA"/>
</svg>
