<svg width="24" height="24" viewBox="0 0 24 24" fill="none" xmlns="http://www.w3.org/2000/svg">
<path d="M17.7875 0.772406C18.0795 0.955252 18.3642 1.15153 18.6406 1.36069C19.5224 2.02627 19.8077 3.19445 19.555 4.19781L19.1165 5.91691C19.0913 6.02005 19.1012 6.19181 19.2197 6.38459C19.426 6.71858 19.6115 7.06657 19.7756 7.42646C19.8701 7.63305 20.0017 7.72959 20.0979 7.75539L21.6939 8.20609C22.6251 8.47046 23.4172 9.31951 23.5126 10.4754C23.5722 11.2056 23.5735 11.9391 23.5136 12.6686C23.4203 13.8255 22.6269 14.675 21.6955 14.938L20.0977 15.3917C20.0019 15.4183 19.8693 15.5138 19.7758 15.72C19.6105 16.0795 19.4245 16.4278 19.2192 16.7623C19.1007 16.953 19.0893 17.1241 19.1171 17.2279L19.5525 18.9506C19.8076 19.9541 19.5237 21.1216 18.6436 21.7874C18.089 22.2074 17.5011 22.5736 16.8869 22.8818C15.9125 23.3717 14.8363 23.0547 14.1596 22.3137L13.0011 21.0469C12.9311 20.969 12.7879 20.8941 12.5752 20.9089C12.2047 20.9353 11.8331 20.9354 11.4626 20.9094C11.2489 20.8948 11.1064 20.9715 11.0376 21.0473L9.87789 22.3145C9.20227 23.0558 8.12254 23.372 7.14845 22.8792C6.53636 22.571 5.95046 22.2053 5.39749 21.7863C4.5157 21.1207 4.23038 19.9526 4.48511 18.9486L4.92167 17.2301C4.94678 17.127 4.93693 16.9552 4.81841 16.7624C4.61169 16.429 4.42596 16.0809 4.26247 15.7206C4.16799 15.514 4.03637 15.4174 3.94025 15.3916L2.34422 14.9409C1.41302 14.6766 0.620889 13.8275 0.525481 12.6717C0.466461 11.942 0.466133 11.2081 0.524498 10.4784C0.617805 9.32153 1.41121 8.47199 2.34137 8.20826L3.9404 7.75535C4.03745 7.72951 4.16878 7.63327 4.26229 7.427C4.42768 7.06743 4.61359 6.71932 4.81894 6.38469C4.93743 6.19402 4.94887 6.02294 4.92103 5.91916L4.48434 4.19565C4.23054 3.19295 4.51439 2.02538 5.39451 1.35958C5.94893 0.939219 6.53683 0.572994 7.15126 0.265232C8.12564 -0.224724 9.20187 0.0923668 9.87853 0.833341L11.0371 2.10009C11.107 2.17797 11.2502 2.25292 11.4629 2.23809C11.8333 2.21183 12.2048 2.21149 12.5755 2.23764C12.7892 2.25221 12.9317 2.17554 13.0006 2.09968L14.1602 0.832488C14.8359 0.091255 15.9156 -0.224933 16.8904 0.266478C17.1933 0.419541 17.4928 0.588443 17.7875 0.772406ZM15.9748 2.38627C15.9276 2.36226 15.8139 2.35069 15.6984 2.4766L14.5407 3.74322C13.9526 4.38606 13.1578 4.62086 12.437 4.57059C12.1589 4.55185 11.8804 4.55264 11.6034 4.57238C10.8821 4.62267 10.087 4.38737 9.49914 3.74506L8.34007 2.47618C8.22557 2.35071 8.10998 2.36137 8.06409 2.38493C7.56436 2.63468 7.08518 2.93327 6.63462 3.27491C6.59478 3.30585 6.52908 3.40706 6.57131 3.57743L7.00799 5.30093C7.22854 6.16947 7.01983 7.0311 6.62006 7.67987C6.46532 7.9322 6.32516 8.19462 6.2004 8.46565C5.88056 9.16432 5.29467 9.79054 4.48862 10.0183L2.88959 10.4712C2.73075 10.5161 2.68378 10.629 2.67891 10.6818C2.63175 11.2752 2.63162 11.871 2.68141 12.4637C2.68475 12.5198 2.73276 12.6326 2.89178 12.6778L4.48655 13.1277C5.29626 13.3577 5.88235 13.9845 6.20269 14.6849C6.32661 14.9549 6.46524 15.216 6.61929 15.467C7.01747 16.1152 7.22731 16.9788 7.00711 17.8495L6.57127 19.5666C6.5289 19.7364 6.5943 19.8384 6.6371 19.8706C7.08783 20.2113 7.56504 20.5091 8.06335 20.7608C8.11047 20.7848 8.22419 20.7963 8.33972 20.6704L9.49742 19.4038C10.0855 18.761 10.8803 18.5262 11.6012 18.5764C11.8792 18.5952 12.1577 18.5944 12.4347 18.5746C13.156 18.5244 13.9512 18.7596 14.539 19.402L15.698 20.6708C15.8133 20.795 15.9281 20.7857 15.974 20.7621C16.4745 20.511 16.9517 20.213 17.4035 19.8721C17.4433 19.8412 17.509 19.74 17.4668 19.5696L17.0301 17.8461C16.8096 16.9776 17.0183 16.1159 17.4181 15.4671C17.5728 15.2148 17.713 14.9524 17.8377 14.6814C18.1576 13.9827 18.7434 13.3565 19.5495 13.1287L21.1485 12.6758C21.3074 12.6309 21.3543 12.518 21.3592 12.4652C21.4071 11.8724 21.4062 11.276 21.3567 10.6833C21.3534 10.6272 21.3054 10.5144 21.1463 10.4692L19.5516 10.0193C18.7419 9.78933 18.1558 9.16249 17.8354 8.4621C17.7125 8.19189 17.5733 7.93065 17.4188 7.68003C17.0207 7.03186 16.8108 6.16822 17.031 5.29755L17.4668 3.58037C17.5099 3.40925 17.4438 3.30857 17.401 3.27646C16.9503 2.93574 16.4731 2.6379 15.9748 2.38627ZM15.7658 13.912C15.1921 14.9863 14.2471 15.7701 13.1388 16.0912C12.0305 16.4122 10.8496 16.2441 9.85589 15.6239C8.8622 15.0037 8.13712 13.9822 7.84014 12.784C7.54317 11.5859 7.69864 10.3092 8.27235 9.235C8.84605 8.16077 9.79101 7.3769 10.8993 7.05586C12.0076 6.73482 13.1885 6.90288 14.1822 7.5231C15.1759 8.14331 15.901 9.16485 16.198 10.363C16.495 11.5612 16.3395 12.8378 15.7658 13.912ZM13.8924 12.7428C14.1792 12.2054 14.2568 11.5668 14.108 10.9676C13.9593 10.3684 13.5965 9.85755 13.0994 9.54752C12.6023 9.23749 12.0116 9.15364 11.4573 9.31442C10.903 9.47519 10.4305 9.86743 10.1437 10.4048C9.85695 10.9422 9.77939 11.5808 9.92811 12.18C10.0017 12.4767 10.1287 12.7548 10.3018 12.9985C10.4749 13.2421 10.6906 13.4466 10.9368 13.6001C11.1829 13.7536 11.4546 13.8532 11.7363 13.8932C12.0181 13.9332 12.3044 13.9128 12.5788 13.8332C12.8533 13.7536 13.1106 13.6163 13.3359 13.4292C13.5613 13.2421 13.7504 13.0089 13.8924 12.7428Z" fill="#AAAAAA"/>
</svg>
