<svg width="25" height="15" viewBox="0 0 25 15" fill="none" xmlns="http://www.w3.org/2000/svg">
<path d="M5.625 3.37501V0.625005H24.875V3.37501H5.625ZM5.625 8.875V6.125H24.875V8.875H5.625ZM5.625 14.375V11.625H24.875V14.375H5.625ZM1.5 3.37501C1.11042 3.37501 0.78363 3.243 0.51963 2.979C0.25563 2.715 0.124088 2.38867 0.125005 2C0.125005 1.61042 0.257005 1.28363 0.521005 1.01963C0.785005 0.75563 1.11134 0.624088 1.5 0.625005C1.88959 0.625005 2.21638 0.757005 2.48038 1.021C2.74438 1.285 2.87592 1.61134 2.87501 2C2.87501 2.38959 2.743 2.71638 2.479 2.98038C2.215 3.24438 1.88867 3.37592 1.5 3.37501ZM1.5 8.875C1.11042 8.875 0.78363 8.743 0.51963 8.479C0.25563 8.215 0.124088 7.88867 0.125005 7.5C0.125005 7.11042 0.257005 6.78363 0.521005 6.51963C0.785005 6.25563 1.11134 6.12409 1.5 6.125C1.88959 6.125 2.21638 6.257 2.48038 6.521C2.74438 6.785 2.87592 7.11134 2.87501 7.5C2.87501 7.88959 2.743 8.21638 2.479 8.48038C2.215 8.74438 1.88867 8.87592 1.5 8.875ZM1.5 14.375C1.11042 14.375 0.78363 14.243 0.51963 13.979C0.25563 13.715 0.124088 13.3887 0.125005 13C0.125005 12.6104 0.257005 12.2836 0.521005 12.0196C0.785005 11.7556 1.11134 11.6241 1.5 11.625C1.88959 11.625 2.21638 11.757 2.48038 12.021C2.74438 12.285 2.87592 12.6113 2.87501 13C2.87501 13.3896 2.743 13.7164 2.479 13.9804C2.215 14.2444 1.88867 14.3759 1.5 14.375Z" fill="white"/>
</svg>
