<svg width="22" height="20" viewBox="0 0 22 20" fill="none" xmlns="http://www.w3.org/2000/svg">
<path d="M3 8C3.55228 8 4 8.44772 4 9V19C4 19.5523 3.55228 20 3 20H1C0.447715 20 0 19.5523 0 19V9C0 8.44771 0.447715 8 1 8H3ZM8 20C7.46957 20 6.96086 19.7893 6.58579 19.4142C6.21071 19.0391 6 18.5304 6 18V8C6 7.45 6.22 6.95 6.59 6.59L12.4629 0.708182C12.8533 0.317151 13.4869 0.31691 13.8776 0.707644L14.23 1.06C14.5 1.33 14.67 1.7 14.67 2.11L14.64 2.43L13.9402 5.79647C13.8111 6.41733 14.2851 7 14.9193 7H20C20.5304 7 21.0391 7.21071 21.4142 7.58579C21.7893 7.96086 22 8.46957 22 9V11C22 11.26 21.95 11.5 21.86 11.73L18.84 18.78C18.54 19.5 17.83 20 17 20H8ZM8 17C8 17.5523 8.44772 18 9 18H16.368C16.7693 18 17.1318 17.76 17.2886 17.3906L19.9206 11.1872C19.973 11.0637 20 10.9308 20 10.7966V10C20 9.44771 19.5523 9 19 9H12.4447C11.8088 9 11.3344 8.41426 11.4665 7.79223L11.6373 6.98839C11.8443 6.01395 10.6548 5.36911 9.95118 6.07432L8.29208 7.73725C8.10504 7.92472 8 8.17872 8 8.44354V17Z" fill="white"/>
</svg>
