<svg width="24" height="22" viewBox="0 0 24 22" fill="none" xmlns="http://www.w3.org/2000/svg">
<path d="M17.5258 0.768302C17.8178 0.937438 18.1024 1.119 18.3789 1.31248C19.2607 1.92815 19.546 3.00875 19.2933 3.93687L18.8547 5.52707C18.8296 5.62248 18.8395 5.78136 18.958 5.95969C19.1643 6.26863 19.3498 6.59053 19.5139 6.92343C19.6084 7.11453 19.74 7.20384 19.8362 7.2277L21.4322 7.64461C22.3634 7.88916 23.1555 8.67454 23.2509 9.74374C23.3105 10.4193 23.3118 11.0977 23.2519 11.7725C23.1586 12.8427 22.3652 13.6285 21.4338 13.8717L19.836 14.2914C19.7402 14.316 19.6076 14.4043 19.5141 14.5951C19.3488 14.9277 19.1628 15.2499 18.9575 15.5593C18.839 15.7357 18.8275 15.8939 18.8554 15.9899L19.2908 17.5835C19.5459 18.5117 19.262 19.5918 18.3819 20.2076C17.8272 20.5961 17.2394 20.9349 16.6251 21.2199C15.6508 21.6731 14.5745 21.3798 13.8979 20.6944L12.7393 19.5226C12.6694 19.4506 12.5262 19.3813 12.3135 19.395C11.943 19.4194 11.5713 19.4195 11.2009 19.3954C10.9872 19.3819 10.8447 19.4529 10.7758 19.523L9.61617 20.6952C8.94055 21.3809 7.86081 21.6733 6.88673 21.2175C6.27464 20.9324 5.68874 20.5941 5.13577 20.2066C4.25398 19.5909 3.96866 18.5103 4.22339 17.5817L4.65995 15.992C4.68506 15.8966 4.67521 15.7377 4.55669 15.5594C4.34997 15.251 4.16424 14.929 4.00075 14.5957C3.90627 14.4046 3.77465 14.3152 3.67853 14.2914L2.0825 13.8745C1.1513 13.6299 0.35917 12.8445 0.263762 11.7753C0.204741 11.1004 0.204413 10.4216 0.262779 9.74656C0.356086 8.67642 1.14949 7.89058 2.07965 7.64662L3.67868 7.22767C3.77573 7.20377 3.90706 7.11474 4.00057 6.92394C4.16596 6.59133 4.35187 6.26932 4.55723 5.95978C4.67571 5.78341 4.68715 5.62515 4.65931 5.52915L4.22263 3.93488C3.96882 3.00736 4.25267 1.92733 5.13279 1.31145C5.68721 0.92261 6.27511 0.583844 6.88954 0.299158C7.86392 -0.154062 8.94015 0.139254 9.61682 0.82467L10.7753 1.99644C10.8453 2.06848 10.9885 2.13781 11.2012 2.12409C11.5716 2.0998 11.9431 2.09949 12.3138 2.12367C12.5275 2.13715 12.67 2.06623 12.7388 1.99606L13.8985 0.82388C14.5741 0.138225 15.6539 -0.154256 16.6287 0.300309C16.9316 0.441895 17.231 0.598133 17.5258 0.768302ZM15.7131 2.26116C15.6659 2.23895 15.5522 2.22825 15.4367 2.34472L14.279 3.51637C13.6909 4.11101 12.8961 4.3282 12.1752 4.28171C11.8972 4.26437 11.6187 4.2651 11.3417 4.28336C10.6204 4.32988 9.82523 4.11222 9.23742 3.51807L8.07835 2.34433C7.96385 2.22827 7.84826 2.23813 7.80237 2.25992C7.30264 2.49095 6.82346 2.76714 6.3729 3.08317C6.33306 3.11179 6.26736 3.20541 6.30959 3.36301L6.74627 4.95729C6.96682 5.76069 6.75811 6.55772 6.35834 7.15785C6.2036 7.39125 6.06345 7.63401 5.93868 7.88471C5.61884 8.53099 5.03295 9.11026 4.2269 9.32096L2.62788 9.73992C2.46903 9.78142 2.42206 9.88586 2.41719 9.93467C2.37003 10.4836 2.3699 11.0347 2.41969 11.583C2.42303 11.6349 2.47105 11.7392 2.63006 11.7811L4.22483 12.1972C5.03454 12.4099 5.62063 12.9898 5.94097 13.6377C6.06489 13.8874 6.20351 14.1289 6.35756 14.3611C6.75575 14.9607 6.96559 15.7595 6.74539 16.5649L6.30955 18.1534C6.26718 18.3104 6.33258 18.4048 6.37538 18.4345C6.82611 18.7497 7.30331 19.0252 7.80163 19.2579C7.84875 19.2801 7.96247 19.2908 8.078 19.1744L9.2357 18.0027C9.82381 17.4081 10.6186 17.1909 11.3394 17.2374C11.6175 17.2547 11.896 17.254 12.173 17.2357C12.8943 17.1892 13.6894 17.4069 14.2773 18.001L15.4363 19.1748C15.5515 19.2896 15.6664 19.281 15.7123 19.2592C16.2128 19.0269 16.69 18.7512 17.1418 18.4359C17.1816 18.4073 17.2473 18.3137 17.2051 18.1561L16.7684 16.5618C16.5479 15.7584 16.7566 14.9614 17.1563 14.3612C17.3111 14.1278 17.4512 13.8851 17.576 13.6344C17.8958 12.9881 18.4817 12.4088 19.2878 12.1981L20.8868 11.7792C21.0457 11.7377 21.0926 11.6332 21.0975 11.5844C21.1453 11.036 21.1445 10.4844 21.095 9.93609C21.0916 9.8842 21.0436 9.77988 20.8846 9.73803L19.2899 9.32185C18.4801 9.10914 17.8941 8.5293 17.5737 7.88143C17.4507 7.63148 17.3116 7.38982 17.1571 7.158C16.7589 6.55843 16.5491 5.75954 16.7693 4.95416L17.2051 3.36573C17.2482 3.20744 17.1821 3.11431 17.1393 3.08461C16.6886 2.76943 16.2114 2.49392 15.7131 2.26116ZM15.5041 12.9227C14.9303 13.9164 13.9854 14.6415 12.8771 14.9385C11.7688 15.2354 10.5879 15.08 9.59417 14.5063C8.60048 13.9326 7.8754 12.9876 7.57842 11.8793C7.28145 10.771 7.43692 9.59007 8.01063 8.59638C8.58433 7.60269 9.52929 6.8776 10.6376 6.58063C11.7459 6.28365 12.9268 6.43912 13.9205 7.01283C14.9142 7.58654 15.6393 8.53149 15.9363 9.63981C16.2332 10.7481 16.0778 11.929 15.5041 12.9227ZM13.6307 11.8411C13.9175 11.344 13.995 10.7533 13.8463 10.1991C13.6976 9.64476 13.3348 9.17225 12.8377 8.88547C12.3406 8.59868 11.7499 8.52112 11.1956 8.66984C10.6413 8.81856 10.1688 9.18138 9.88201 9.67849C9.59523 10.1756 9.51767 10.7663 9.66639 11.3206C9.74003 11.595 9.867 11.8523 10.0401 12.0777C10.2131 12.3031 10.4289 12.4921 10.675 12.6342C10.9212 12.7762 11.1929 12.8683 11.4746 12.9053C11.7564 12.9423 12.0426 12.9234 12.3171 12.8498C12.5916 12.7761 12.8488 12.6492 13.0742 12.4761C13.2996 12.303 13.4887 12.0873 13.6307 11.8411Z" fill="white"/>
</svg>
