<svg width="43" height="52" viewBox="0 0 43 52" fill="none" xmlns="http://www.w3.org/2000/svg">
<mask id="path-1-inside-1_1615_265" fill="white">
<path d="M2.94743 29.8906C1.31961 29.8906 -0.0207533 31.2163 0.201713 32.8289C0.590188 35.6447 1.53467 38.3657 2.99083 40.8296C4.94878 44.1425 7.76004 46.8692 11.1312 48.7251C14.5024 50.581 18.3099 51.4981 22.1564 51.3806C26.0028 51.2631 29.7473 50.1154 32.9989 48.0572C36.2505 45.999 38.8901 43.1059 40.6423 39.6796C42.3944 36.2533 43.1948 32.4196 42.9599 28.5785C42.7251 24.7374 41.4636 21.0298 39.3071 17.8425C37.7033 15.4721 35.6482 13.4541 33.2694 11.8981C31.9071 11.007 30.1354 11.6511 29.4388 13.1224V13.1224C28.7422 14.5937 29.3927 16.3305 30.707 17.291C32.1532 18.3478 33.4128 19.6501 34.4247 21.1458C35.99 23.4592 36.9056 26.1503 37.076 28.9383C37.2465 31.7262 36.6656 34.5088 35.3938 36.9957C34.1221 39.4825 32.2062 41.5824 29.8461 43.0763C27.486 44.5702 24.7682 45.4032 21.9764 45.4885C19.1845 45.5738 16.421 44.9081 13.9741 43.5611C11.5273 42.214 9.48679 40.2349 8.06567 37.8303C7.14685 36.2757 6.50871 34.58 6.17239 32.8206C5.86675 31.2217 4.57525 29.8906 2.94743 29.8906V29.8906Z"/>
</mask>
<path d="M2.94743 29.8906C1.31961 29.8906 -0.0207533 31.2163 0.201713 32.8289C0.590188 35.6447 1.53467 38.3657 2.99083 40.8296C4.94878 44.1425 7.76004 46.8692 11.1312 48.7251C14.5024 50.581 18.3099 51.4981 22.1564 51.3806C26.0028 51.2631 29.7473 50.1154 32.9989 48.0572C36.2505 45.999 38.8901 43.1059 40.6423 39.6796C42.3944 36.2533 43.1948 32.4196 42.9599 28.5785C42.7251 24.7374 41.4636 21.0298 39.3071 17.8425C37.7033 15.4721 35.6482 13.4541 33.2694 11.8981C31.9071 11.007 30.1354 11.6511 29.4388 13.1224V13.1224C28.7422 14.5937 29.3927 16.3305 30.707 17.291C32.1532 18.3478 33.4128 19.6501 34.4247 21.1458C35.99 23.4592 36.9056 26.1503 37.076 28.9383C37.2465 31.7262 36.6656 34.5088 35.3938 36.9957C34.1221 39.4825 32.2062 41.5824 29.8461 43.0763C27.486 44.5702 24.7682 45.4032 21.9764 45.4885C19.1845 45.5738 16.421 44.9081 13.9741 43.5611C11.5273 42.214 9.48679 40.2349 8.06567 37.8303C7.14685 36.2757 6.50871 34.58 6.17239 32.8206C5.86675 31.2217 4.57525 29.8906 2.94743 29.8906V29.8906Z" fill="white" stroke="white" stroke-width="2" mask="url(#path-1-inside-1_1615_265)"/>
<path d="M19.9164 10.8943C19.4425 10.2877 19.8029 9.39547 20.5652 9.28833L34.7629 7.29298C35.5252 7.18585 36.1176 7.94411 35.8293 8.65786L30.4585 21.9511C30.1701 22.6648 29.2172 22.7987 28.7433 22.1921L19.9164 10.8943Z" fill="white"/>
</svg>
