<svg width="21" height="23" viewBox="0 0 21 23" fill="none" xmlns="http://www.w3.org/2000/svg">
<path d="M19.7812 4.0625H15.5625V3.21875C15.5625 2.54742 15.2958 1.90359 14.8211 1.42889C14.3464 0.954185 13.7026 0.6875 13.0312 0.6875H7.96875C7.29742 0.6875 6.65359 0.954185 6.17889 1.42889C5.70418 1.90359 5.4375 2.54742 5.4375 3.21875V4.0625H1.21875C0.994974 4.0625 0.780363 4.1514 0.622129 4.30963C0.463895 4.46786 0.375 4.68247 0.375 4.90625C0.375 5.13003 0.463895 5.34464 0.622129 5.50287C0.780363 5.66111 0.994974 5.75 1.21875 5.75H2.0625V20.9375C2.0625 21.3851 2.24029 21.8143 2.55676 22.1307C2.87322 22.4472 3.30245 22.625 3.75 22.625H17.25C17.6976 22.625 18.1268 22.4472 18.4432 22.1307C18.7597 21.8143 18.9375 21.3851 18.9375 20.9375V5.75H19.7812C20.005 5.75 20.2196 5.66111 20.3779 5.50287C20.5361 5.34464 20.625 5.13003 20.625 4.90625C20.625 4.68247 20.5361 4.46786 20.3779 4.30963C20.2196 4.1514 20.005 4.0625 19.7812 4.0625ZM7.125 3.21875C7.125 2.99497 7.21389 2.78036 7.37213 2.62213C7.53036 2.46389 7.74497 2.375 7.96875 2.375H13.0312C13.255 2.375 13.4696 2.46389 13.6279 2.62213C13.7861 2.78036 13.875 2.99497 13.875 3.21875V4.0625H7.125V3.21875ZM17.25 20.9375H3.75V5.75H17.25V20.9375ZM8.8125 9.96875V16.7188C8.8125 16.9425 8.72361 17.1571 8.56537 17.3154C8.40714 17.4736 8.19253 17.5625 7.96875 17.5625C7.74497 17.5625 7.53036 17.4736 7.37213 17.3154C7.21389 17.1571 7.125 16.9425 7.125 16.7188V9.96875C7.125 9.74497 7.21389 9.53036 7.37213 9.37213C7.53036 9.21389 7.74497 9.125 7.96875 9.125C8.19253 9.125 8.40714 9.21389 8.56537 9.37213C8.72361 9.53036 8.8125 9.74497 8.8125 9.96875ZM13.875 9.96875V16.7188C13.875 16.9425 13.7861 17.1571 13.6279 17.3154C13.4696 17.4736 13.255 17.5625 13.0312 17.5625C12.8075 17.5625 12.5929 17.4736 12.4346 17.3154C12.2764 17.1571 12.1875 16.9425 12.1875 16.7188V9.96875C12.1875 9.74497 12.2764 9.53036 12.4346 9.37213C12.5929 9.21389 12.8075 9.125 13.0312 9.125C13.255 9.125 13.4696 9.21389 13.6279 9.37213C13.7861 9.53036 13.875 9.74497 13.875 9.96875Z" fill="white"/>
</svg>
