<svg width="28" height="21" viewBox="0 0 28 21" fill="none" xmlns="http://www.w3.org/2000/svg">
<path d="M15.8327 19.179C14.8249 20.1869 13.1908 20.1869 12.1829 19.179L9.18698 16.1831C8.1791 15.1752 8.1791 13.5411 9.18698 12.5332L18.0302 3.68996C19.8654 1.85478 22.8408 1.85478 24.676 3.68996C26.5112 5.52513 26.5112 8.50054 24.676 10.3357L15.8327 19.179Z" fill="white"/>
<path d="M3.49833 3.49777C5.43009 1.566 8.5621 1.566 10.4939 3.49777L12.775 5.77892C13.2538 6.25766 13.2538 7.03385 12.775 7.51259L7.51315 12.7745C7.03441 13.2532 6.25822 13.2532 5.77948 12.7745L3.49833 10.4933C1.56656 8.56154 1.56656 5.42953 3.49833 3.49777Z" fill="white"/>
</svg>
