<svg width="32" height="36" viewBox="0 0 32 36" fill="none" xmlns="http://www.w3.org/2000/svg">
<path d="M7.44444 23.9459V31L14.4444 23.9459H7.44444Z" fill="white"/>
<path d="M4 2C3.05719 2 2.58579 2 2.29289 2.29289C2 2.58579 2 3.05719 2 4V21.9459C2 22.8888 2 23.3602 2.29289 23.6531C2.58579 23.9459 3.05719 23.9459 4 23.9459H7.44444H14.4444H28C28.9428 23.9459 29.4142 23.9459 29.7071 23.6531C30 23.3602 30 22.8888 30 21.9459V4C30 3.05719 30 2.58579 29.7071 2.29289C29.4142 2 28.9428 2 28 2H4Z" fill="white"/>
<path d="M7.44444 23.9459H4C3.05719 23.9459 2.58579 23.9459 2.29289 23.6531C2 23.3602 2 22.8888 2 21.9459V4C2 3.05719 2 2.58579 2.29289 2.29289C2.58579 2 3.05719 2 4 2H28C28.9428 2 29.4142 2 29.7071 2.29289C30 2.58579 30 3.05719 30 4V21.9459C30 22.8888 30 23.3602 29.7071 23.6531C29.4142 23.9459 28.9428 23.9459 28 23.9459H14.4444M7.44444 23.9459C7.44444 26.7007 7.44444 31 7.44444 31M7.44444 23.9459H14.4444M7.44444 23.9459V31M7.44444 31C7.44444 31 11.7108 26.7007 14.4444 23.9459M7.44444 31L14.4444 23.9459" stroke="white" stroke-width="4"/>
</svg>
